solid denso_finger_2finger_4
facet normal 0.0 0.0 -1.0
  outer loop
    vertex -2.5000000000000004 4.499999999999999 3.0
    vertex -6.0 -7.049916206369744e-16 3.0
    vertex -6.0 4.499999999999999 3.0
  endloop
endfacet
facet normal 0.0 0.0 -1.0
  outer loop
    vertex -6.0 -7.049916206369744e-16 3.0
    vertex -2.5000000000000004 4.499999999999999 3.0
    vertex -3.948888739433603 0.3882285676537797 3.0
  endloop
endfacet
facet normal 0.0 0.0 -1.0
  outer loop
    vertex -6.0 -7.049916206369744e-16 3.0
    vertex -3.948888739433603 0.3882285676537797 3.0
    vertex -4.0 -9.805371504451288e-16 3.0
  endloop
endfacet
facet normal 0.0 0.0 -1.0
  outer loop
    vertex -3.948888739433603 0.3882285676537797 3.0
    vertex -2.5000000000000004 4.499999999999999 3.0
    vertex -3.7990381056766584 0.7499999999999982 3.0
  endloop
endfacet
facet normal 0.0 0.0 -1.0
  outer loop
    vertex -3.7990381056766584 0.7499999999999982 3.0
    vertex -2.5000000000000004 4.499999999999999 3.0
    vertex -3.5606601717798223 1.0606601717798203 3.0
  endloop
endfacet
facet normal 0.0 0.0 -1.0
  outer loop
    vertex -3.5606601717798223 1.0606601717798203 3.0
    vertex -2.5000000000000004 4.499999999999999 3.0
    vertex -3.250000000000001 1.299038105676657 3.0
  endloop
endfacet
facet normal 0.0 0.0 -1.0
  outer loop
    vertex -3.250000000000001 1.299038105676657 3.0
    vertex -2.5000000000000004 4.499999999999999 3.0
    vertex -2.888228567653783 1.4488887394336014 3.0
  endloop
endfacet
facet normal 0.0 0.0 -1.0
  outer loop
    vertex -2.888228567653783 1.4488887394336014 3.0
    vertex -2.5000000000000004 4.499999999999999 3.0
    vertex -2.5000000000000004 1.4999999999999991 3.0
  endloop
endfacet
facet normal 1.0 -0.0 -0.0
  outer loop
    vertex -6.0 4.499999999999999 0.0
    vertex -6.0 -7.049916206369744e-16 3.0
    vertex -6.0 -7.049916206369744e-16 0.0
  endloop
endfacet
facet normal 1.0 -0.0 -0.0
  outer loop
    vertex -6.0 -7.049916206369744e-16 3.0
    vertex -6.0 4.499999999999999 0.0
    vertex -6.0 4.499999999999999 3.0
  endloop
endfacet
facet normal 0.0 -1.0 0.0
  outer loop
    vertex -2.5000000000000004 4.499999999999999 3.0
    vertex -6.0 4.499999999999999 0.0
    vertex -2.5000000000000004 4.499999999999999 0.0
  endloop
endfacet
facet normal 0.0 -1.0 0.0
  outer loop
    vertex -6.0 4.499999999999999 0.0
    vertex -2.5000000000000004 4.499999999999999 3.0
    vertex -6.0 4.499999999999999 3.0
  endloop
endfacet
facet normal 0.0 -1.0 0.0
  outer loop
    vertex 2.5000000000000004 4.499999999999999 3.0
    vertex -2.5000000000000004 4.499999999999999 0.0
    vertex 2.5000000000000004 4.499999999999999 0.0
  endloop
endfacet
facet normal 0.0 -1.0 0.0
  outer loop
    vertex -2.5000000000000004 4.499999999999999 0.0
    vertex 2.5000000000000004 4.499999999999999 3.0
    vertex 1.0000000000000009 4.499999999999999 3.0
  endloop
endfacet
facet normal 0.0 -1.0 0.0
  outer loop
    vertex -2.5000000000000004 4.499999999999999 3.0
    vertex -2.5000000000000004 4.499999999999999 0.0
    vertex 1.0000000000000009 4.499999999999999 3.0
  endloop
endfacet
facet normal -1.0 7.833240229299715e-17 -3.916620114649856e-17
  outer loop
    vertex 10.999999999999996 4.499999999999999 28.000000000000004
    vertex 10.999999999999996 -4.500000000000001 0.0
    vertex 10.999999999999996 -4.500000000000001 28.000000000000004
  endloop
endfacet
facet normal -1.0 7.833240229299715e-17 -3.916620114649856e-17
  outer loop
    vertex 10.999999999999996 -4.500000000000001 0.0
    vertex 10.999999999999996 4.499999999999999 28.000000000000004
    vertex 10.999999999999998 4.499999999999999 0.0
  endloop
endfacet
facet normal -3.66229413317909e-17 1.0 -1.5259558888246196e-16
  outer loop
    vertex -2.5000000000000004 -4.500000000000001 3.0
    vertex 2.5000000000000004 -4.500000000000001 0.0
    vertex -2.5000000000000004 -4.500000000000001 0.0
  endloop
endfacet
facet normal -3.66229413317909e-17 1.0 -1.5259558888246196e-16
  outer loop
    vertex 2.5000000000000004 -4.500000000000001 0.0
    vertex -2.5000000000000004 -4.500000000000001 3.0
    vertex 1.0000000000000009 -4.499999999999999 3.0
  endloop
endfacet
facet normal -3.66229413317909e-17 1.0 -1.5259558888246196e-16
  outer loop
    vertex 2.5000000000000004 -4.500000000000001 0.0
    vertex 1.0000000000000009 -4.499999999999999 3.0
    vertex 2.5000000000000004 -4.500000000000001 3.0
  endloop
endfacet
facet normal 0.0 0.0 -1.0
  outer loop
    vertex -4.0 -9.805371504451288e-16 3.0
    vertex -6.0 -4.500000000000001 3.0
    vertex -6.0 -7.049916206369744e-16 3.0
  endloop
endfacet
facet normal 0.0 0.0 -1.0
  outer loop
    vertex -6.0 -4.500000000000001 3.0
    vertex -4.0 -9.805371504451288e-16 3.0
    vertex -3.948888739433602 -0.3882285676537829 3.0
  endloop
endfacet
facet normal 0.0 0.0 -1.0
  outer loop
    vertex -6.0 -4.500000000000001 3.0
    vertex -3.948888739433602 -0.3882285676537829 3.0
    vertex -2.5000000000000004 -4.500000000000001 3.0
  endloop
endfacet
facet normal 0.0 0.0 -1.0
  outer loop
    vertex -2.5000000000000004 -4.500000000000001 3.0
    vertex -3.948888739433602 -0.3882285676537829 3.0
    vertex -3.7990381056766576 -0.7500000000000013 3.0
  endloop
endfacet
facet normal 0.0 0.0 -1.0
  outer loop
    vertex -2.5000000000000004 -4.500000000000001 3.0
    vertex -3.7990381056766576 -0.7500000000000013 3.0
    vertex -3.560660171779821 -1.0606601717798225 3.0
  endloop
endfacet
facet normal 0.0 0.0 -1.0
  outer loop
    vertex -2.5000000000000004 -4.500000000000001 3.0
    vertex -3.560660171779821 -1.0606601717798225 3.0
    vertex -3.2499999999999996 -1.2990381056766587 3.0
  endloop
endfacet
facet normal 0.0 0.0 -1.0
  outer loop
    vertex -2.5000000000000004 -4.500000000000001 3.0
    vertex -3.2499999999999996 -1.2990381056766587 3.0
    vertex -2.888228567653781 -1.4488887394336034 3.0
  endloop
endfacet
facet normal 0.0 0.0 -1.0
  outer loop
    vertex -2.5000000000000004 -4.500000000000001 3.0
    vertex -2.888228567653781 -1.4488887394336034 3.0
    vertex -2.5 -1.5000000000000007 3.0
  endloop
endfacet
facet normal -0.0 1.0 -0.0
  outer loop
    vertex -6.0 -4.500000000000001 3.0
    vertex -2.5000000000000004 -4.500000000000001 0.0
    vertex -6.0 -4.500000000000001 0.0
  endloop
endfacet
facet normal -0.0 1.0 -0.0
  outer loop
    vertex -2.5000000000000004 -4.500000000000001 0.0
    vertex -6.0 -4.500000000000001 3.0
    vertex -2.5000000000000004 -4.500000000000001 3.0
  endloop
endfacet
facet normal 1.0 -0.0 -0.0
  outer loop
    vertex -6.0 -7.049916206369744e-16 0.0
    vertex -6.0 -4.500000000000001 3.0
    vertex -6.0 -4.500000000000001 0.0
  endloop
endfacet
facet normal 1.0 -0.0 -0.0
  outer loop
    vertex -6.0 -4.500000000000001 3.0
    vertex -6.0 -7.049916206369744e-16 0.0
    vertex -6.0 -7.049916206369744e-16 3.0
  endloop
endfacet
facet normal 0.0 0.0 -1.0
  outer loop
    vertex -2.5 -1.5000000000000007 3.0
    vertex 1.0000000000000009 -4.499999999999999 3.0
    vertex -2.5000000000000004 -4.500000000000001 3.0
  endloop
endfacet
facet normal 0.0 0.0 -1.0
  outer loop
    vertex 1.0000000000000009 -4.499999999999999 3.0
    vertex -2.5 -1.5000000000000007 3.0
    vertex -2.111771432346219 -1.448888739433603 3.0
  endloop
endfacet
facet normal 0.0 0.0 -1.0
  outer loop
    vertex 1.0000000000000009 -4.499999999999999 3.0
    vertex -2.111771432346219 -1.448888739433603 3.0
    vertex -1.75 -1.2990381056766584 3.0
  endloop
endfacet
facet normal 0.0 0.0 -1.0
  outer loop
    vertex 1.0000000000000009 -4.499999999999999 3.0
    vertex -1.75 -1.2990381056766584 3.0
    vertex -1.439339828220179 -1.0606601717798219 3.0
  endloop
endfacet
facet normal 0.0 0.0 -1.0
  outer loop
    vertex 1.0000000000000009 -4.499999999999999 3.0
    vertex -1.439339828220179 -1.0606601717798219 3.0
    vertex -1.2009618943233422 -0.7500000000000003 3.0
  endloop
endfacet
facet normal 0.0 0.0 -1.0
  outer loop
    vertex 1.0000000000000009 -4.499999999999999 3.0
    vertex -1.2009618943233422 -0.7500000000000003 3.0
    vertex -1.051111260566398 -0.38822856765378166 3.0
  endloop
endfacet
facet normal 0.0 0.0 -1.0
  outer loop
    vertex 1.0000000000000009 -4.499999999999999 3.0
    vertex -1.051111260566398 -0.38822856765378166 3.0
    vertex -1.0000000000000004 -6.131431107009229e-16 3.0
  endloop
endfacet
facet normal 0.0 0.0 -1.0
  outer loop
    vertex 1.0000000000000009 -4.499999999999999 3.0
    vertex -1.0000000000000004 -6.131431107009229e-16 3.0
    vertex 1.0000000000000009 -3.6423109483557615e-16 3.0
  endloop
endfacet
facet normal 0.0 0.0 -1.0
  outer loop
    vertex 1.0000000000000009 4.499999999999999 3.0
    vertex -2.5000000000000004 1.4999999999999991 3.0
    vertex -2.5000000000000004 4.499999999999999 3.0
  endloop
endfacet
facet normal 0.0 0.0 -1.0
  outer loop
    vertex -2.5000000000000004 1.4999999999999991 3.0
    vertex 1.0000000000000009 4.499999999999999 3.0
    vertex -2.1117714323462193 1.4488887394336016 3.0
  endloop
endfacet
facet normal 0.0 0.0 -1.0
  outer loop
    vertex -2.1117714323462193 1.4488887394336016 3.0
    vertex 1.0000000000000009 4.499999999999999 3.0
    vertex -1.7500000000000002 1.2990381056766573 3.0
  endloop
endfacet
facet normal 0.0 0.0 -1.0
  outer loop
    vertex -1.7500000000000002 1.2990381056766573 3.0
    vertex 1.0000000000000009 4.499999999999999 3.0
    vertex -1.4393398282201793 1.0606601717798205 3.0
  endloop
endfacet
facet normal 0.0 0.0 -1.0
  outer loop
    vertex -1.4393398282201793 1.0606601717798205 3.0
    vertex 1.0000000000000009 4.499999999999999 3.0
    vertex -1.2009618943233424 0.7499999999999994 3.0
  endloop
endfacet
facet normal 0.0 0.0 -1.0
  outer loop
    vertex -1.2009618943233424 0.7499999999999994 3.0
    vertex 1.0000000000000009 4.499999999999999 3.0
    vertex -1.0511112605663981 0.3882285676537807 3.0
  endloop
endfacet
facet normal 0.0 0.0 -1.0
  outer loop
    vertex -1.0511112605663981 0.3882285676537807 3.0
    vertex 1.0000000000000009 4.499999999999999 3.0
    vertex -1.0000000000000004 -6.131431107009229e-16 3.0
  endloop
endfacet
facet normal 0.0 0.0 -1.0
  outer loop
    vertex -1.0000000000000004 -6.131431107009229e-16 3.0
    vertex 1.0000000000000009 4.499999999999999 3.0
    vertex 1.0000000000000009 -3.6423109483557615e-16 3.0
  endloop
endfacet
facet normal 0.0 0.0 -1.0
  outer loop
    vertex 1.0000000000000009 -3.6423109483557615e-16 3.0
    vertex 1.0000000000000009 4.499999999999999 3.0
    vertex 1.0009864240905226 0.05439024948537182 3.0
  endloop
endfacet
facet normal 1.1723270616355176e-16 -1.0 -1.1307686313404506e-16
  outer loop
    vertex 10.999999999999998 4.499999999999999 0.0
    vertex 6.999999999999997 4.499999999999999 3.0
    vertex 2.5000000000000004 4.499999999999999 0.0
  endloop
endfacet
facet normal 1.1723270616355176e-16 -1.0 -1.1307686313404506e-16
  outer loop
    vertex 6.999999999999997 4.499999999999999 3.0
    vertex 10.999999999999998 4.499999999999999 0.0
    vertex 10.999999999999996 4.499999999999999 28.000000000000004
  endloop
endfacet
facet normal 1.1723270616355176e-16 -1.0 -1.1307686313404506e-16
  outer loop
    vertex 6.999999999999997 4.499999999999999 3.0
    vertex 10.999999999999996 4.499999999999999 28.000000000000004
    vertex 6.999999999999997 4.499999999999995 23.000000000000007
  endloop
endfacet
facet normal 1.1723270616355176e-16 -1.0 -1.1307686313404506e-16
  outer loop
    vertex 6.999999999999997 4.499999999999995 23.000000000000007
    vertex 10.999999999999996 4.499999999999999 28.000000000000004
    vertex 6.999999999999993 4.4999999999999964 28.000000000000004
  endloop
endfacet
facet normal 1.1723270616355176e-16 -1.0 -1.1307686313404506e-16
  outer loop
    vertex 2.5000000000000004 4.499999999999999 3.0
    vertex 2.5000000000000004 4.499999999999999 0.0
    vertex 6.999999999999997 4.499999999999999 3.0
  endloop
endfacet
facet normal -0.0 -0.0 1.0
  outer loop
    vertex -6.0 4.499999999999999 0.0
    vertex -3.948888739433603 0.3882285676537797 0.0
    vertex -2.5000000000000004 4.499999999999999 0.0
  endloop
endfacet
facet normal -0.0 -0.0 1.0
  outer loop
    vertex -3.948888739433603 0.3882285676537797 0.0
    vertex -6.0 4.499999999999999 0.0
    vertex -4.0 -9.805371504451288e-16 0.0
  endloop
endfacet
facet normal -0.0 -0.0 1.0
  outer loop
    vertex -2.5000000000000004 4.499999999999999 0.0
    vertex -3.948888739433603 0.3882285676537797 0.0
    vertex -3.7990381056766584 0.7499999999999982 0.0
  endloop
endfacet
facet normal -0.0 -0.0 1.0
  outer loop
    vertex -2.5000000000000004 4.499999999999999 0.0
    vertex -3.7990381056766584 0.7499999999999982 0.0
    vertex -3.5606601717798223 1.0606601717798203 0.0
  endloop
endfacet
facet normal -0.0 -0.0 1.0
  outer loop
    vertex -2.5000000000000004 4.499999999999999 0.0
    vertex -3.5606601717798223 1.0606601717798203 0.0
    vertex -3.250000000000001 1.299038105676657 0.0
  endloop
endfacet
facet normal -0.0 -0.0 1.0
  outer loop
    vertex -2.5000000000000004 4.499999999999999 0.0
    vertex -3.250000000000001 1.299038105676657 0.0
    vertex -2.888228567653783 1.4488887394336014 0.0
  endloop
endfacet
facet normal -0.0 -0.0 1.0
  outer loop
    vertex -2.5000000000000004 4.499999999999999 0.0
    vertex -2.888228567653783 1.4488887394336014 0.0
    vertex -2.5000000000000004 1.4999999999999991 0.0
  endloop
endfacet
facet normal -0.0 -0.0 1.0
  outer loop
    vertex -2.5000000000000004 4.499999999999999 0.0
    vertex -2.5000000000000004 1.4999999999999991 0.0
    vertex -2.1117714323462193 1.4488887394336016 0.0
  endloop
endfacet
facet normal -0.0 -0.0 1.0
  outer loop
    vertex -2.5000000000000004 4.499999999999999 0.0
    vertex -2.1117714323462193 1.4488887394336016 0.0
    vertex 2.5000000000000004 4.499999999999999 0.0
  endloop
endfacet
facet normal -0.0 -0.0 1.0
  outer loop
    vertex 2.5000000000000004 4.499999999999999 0.0
    vertex -2.1117714323462193 1.4488887394336016 0.0
    vertex -1.7500000000000002 1.2990381056766573 0.0
  endloop
endfacet
facet normal -0.0 -0.0 1.0
  outer loop
    vertex 2.5000000000000004 4.499999999999999 0.0
    vertex -1.7500000000000002 1.2990381056766573 0.0
    vertex -1.4393398282201793 1.0606601717798205 0.0
  endloop
endfacet
facet normal -0.0 -0.0 1.0
  outer loop
    vertex 2.5000000000000004 4.499999999999999 0.0
    vertex -1.4393398282201793 1.0606601717798205 0.0
    vertex -1.2009618943233424 0.7499999999999994 0.0
  endloop
endfacet
facet normal -0.0 -0.0 1.0
  outer loop
    vertex 2.5000000000000004 4.499999999999999 0.0
    vertex -1.2009618943233424 0.7499999999999994 0.0
    vertex -1.0511112605663981 0.3882285676537807 0.0
  endloop
endfacet
facet normal -0.0 -0.0 1.0
  outer loop
    vertex 2.5000000000000004 4.499999999999999 0.0
    vertex -1.0511112605663981 0.3882285676537807 0.0
    vertex -1.0000000000000004 -6.131431107009229e-16 0.0
  endloop
endfacet
facet normal -0.0 -0.0 1.0
  outer loop
    vertex 2.5000000000000004 4.499999999999999 0.0
    vertex -1.0000000000000004 -6.131431107009229e-16 0.0
    vertex 1.0661413055057993 0.4405102089888332 0.0
  endloop
endfacet
facet normal -0.0 -0.0 1.0
  outer loop
    vertex 1.0661413055057993 0.4405102089888332 0.0
    vertex -1.0000000000000004 -6.131431107009229e-16 0.0
    vertex 1.0009864240905226 0.05439024948537182 0.0
  endloop
endfacet
facet normal -0.0 -0.0 1.0
  outer loop
    vertex 2.5000000000000004 4.499999999999999 0.0
    vertex 1.0661413055057993 0.4405102089888332 0.0
    vertex 1.229011287387326 0.7966101257272444 0.0
  endloop
endfacet
facet normal -0.0 -0.0 1.0
  outer loop
    vertex 2.5000000000000004 4.499999999999999 0.0
    vertex 1.229011287387326 0.7966101257272444 0.0
    vertex 1.478497049625248 1.0984223788578216 0.0
  endloop
endfacet
facet normal -0.0 -0.0 1.0
  outer loop
    vertex 2.5000000000000004 4.499999999999999 0.0
    vertex 1.478497049625248 1.0984223788578216 0.0
    vertex 1.797596549817768 1.3253789620980467 0.0
  endloop
endfacet
facet normal -0.0 -0.0 1.0
  outer loop
    vertex 2.5000000000000004 4.499999999999999 0.0
    vertex 1.797596549817768 1.3253789620980467 0.0
    vertex 2.1645636843636216 1.4620131593635846 0.0
  endloop
endfacet
facet normal -0.0 -0.0 1.0
  outer loop
    vertex 2.5000000000000004 4.499999999999999 0.0
    vertex 2.1645636843636216 1.4620131593635846 0.0
    vertex 2.4861738665297866 1.4925388130009447 0.0
  endloop
endfacet
facet normal -0.0 -0.0 1.0
  outer loop
    vertex -2.5000000000000004 -4.500000000000001 0.0
    vertex -6.0 -7.049916206369744e-16 0.0
    vertex -6.0 -4.500000000000001 0.0
  endloop
endfacet
facet normal -0.0 -0.0 1.0
  outer loop
    vertex -6.0 -7.049916206369744e-16 0.0
    vertex -2.5000000000000004 -4.500000000000001 0.0
    vertex -6.0 4.499999999999999 0.0
  endloop
endfacet
facet normal -0.0 -0.0 1.0
  outer loop
    vertex -6.0 4.499999999999999 0.0
    vertex -2.5000000000000004 -4.500000000000001 0.0
    vertex -3.948888739433602 -0.3882285676537829 0.0
  endloop
endfacet
facet normal -0.0 -0.0 1.0
  outer loop
    vertex -6.0 4.499999999999999 0.0
    vertex -3.948888739433602 -0.3882285676537829 0.0
    vertex -4.0 -9.805371504451288e-16 0.0
  endloop
endfacet
facet normal -0.0 -0.0 1.0
  outer loop
    vertex -3.948888739433602 -0.3882285676537829 0.0
    vertex -2.5000000000000004 -4.500000000000001 0.0
    vertex -3.7990381056766576 -0.7500000000000013 0.0
  endloop
endfacet
facet normal -0.0 -0.0 1.0
  outer loop
    vertex -3.7990381056766576 -0.7500000000000013 0.0
    vertex -2.5000000000000004 -4.500000000000001 0.0
    vertex -3.560660171779821 -1.0606601717798225 0.0
  endloop
endfacet
facet normal -0.0 -0.0 1.0
  outer loop
    vertex -3.560660171779821 -1.0606601717798225 0.0
    vertex -2.5000000000000004 -4.500000000000001 0.0
    vertex -3.2499999999999996 -1.2990381056766587 0.0
  endloop
endfacet
facet normal -0.0 -0.0 1.0
  outer loop
    vertex -3.2499999999999996 -1.2990381056766587 0.0
    vertex -2.5000000000000004 -4.500000000000001 0.0
    vertex -2.888228567653781 -1.4488887394336034 0.0
  endloop
endfacet
facet normal -0.0 -0.0 1.0
  outer loop
    vertex -2.888228567653781 -1.4488887394336034 0.0
    vertex -2.5000000000000004 -4.500000000000001 0.0
    vertex -2.5 -1.5000000000000007 0.0
  endloop
endfacet
facet normal -0.0 -0.0 1.0
  outer loop
    vertex -2.5 -1.5000000000000007 0.0
    vertex -2.5000000000000004 -4.500000000000001 0.0
    vertex 2.5000000000000004 -4.500000000000001 0.0
  endloop
endfacet
facet normal -0.0 -0.0 1.0
  outer loop
    vertex -2.5 -1.5000000000000007 0.0
    vertex 2.5000000000000004 -4.500000000000001 0.0
    vertex -2.111771432346219 -1.448888739433603 0.0
  endloop
endfacet
facet normal -0.0 -0.0 1.0
  outer loop
    vertex -2.111771432346219 -1.448888739433603 0.0
    vertex 2.5000000000000004 -4.500000000000001 0.0
    vertex -1.75 -1.2990381056766584 0.0
  endloop
endfacet
facet normal -0.0 -0.0 1.0
  outer loop
    vertex -1.75 -1.2990381056766584 0.0
    vertex 2.5000000000000004 -4.500000000000001 0.0
    vertex -1.439339828220179 -1.0606601717798219 0.0
  endloop
endfacet
facet normal -0.0 -0.0 1.0
  outer loop
    vertex -1.439339828220179 -1.0606601717798219 0.0
    vertex 2.5000000000000004 -4.500000000000001 0.0
    vertex -1.2009618943233422 -0.7500000000000003 0.0
  endloop
endfacet
facet normal -0.0 -0.0 1.0
  outer loop
    vertex -1.2009618943233422 -0.7500000000000003 0.0
    vertex 2.5000000000000004 -4.500000000000001 0.0
    vertex -1.051111260566398 -0.38822856765378166 0.0
  endloop
endfacet
facet normal -0.0 -0.0 1.0
  outer loop
    vertex -1.051111260566398 -0.38822856765378166 0.0
    vertex 2.5000000000000004 -4.500000000000001 0.0
    vertex -1.0000000000000004 -6.131431107009229e-16 0.0
  endloop
endfacet
facet normal -0.0 -0.0 1.0
  outer loop
    vertex -1.0000000000000004 -6.131431107009229e-16 0.0
    vertex 2.5000000000000004 -4.500000000000001 0.0
    vertex 1.037986840636415 -0.3354363156363791 0.0
  endloop
endfacet
facet normal -0.0 -0.0 1.0
  outer loop
    vertex -1.0000000000000004 -6.131431107009229e-16 0.0
    vertex 1.037986840636415 -0.3354363156363791 0.0
    vertex 1.0009864240905226 0.05439024948537182 0.0
  endloop
endfacet
facet normal -0.0 -0.0 1.0
  outer loop
    vertex 1.037986840636415 -0.3354363156363791 0.0
    vertex 2.5000000000000004 -4.500000000000001 0.0
    vertex 1.174621037901953 -0.7024034501822326 0.0
  endloop
endfacet
facet normal -0.0 -0.0 1.0
  outer loop
    vertex 1.174621037901953 -0.7024034501822326 0.0
    vertex 2.5000000000000004 -4.500000000000001 0.0
    vertex 1.4015776211421784 -1.021502950374753 0.0
  endloop
endfacet
facet normal -0.0 -0.0 1.0
  outer loop
    vertex 1.4015776211421784 -1.021502950374753 0.0
    vertex 2.5000000000000004 -4.500000000000001 0.0
    vertex 1.703389874272756 -1.2709887126126753 0.0
  endloop
endfacet
facet normal -0.0 -0.0 1.0
  outer loop
    vertex 1.703389874272756 -1.2709887126126753 0.0
    vertex 2.5000000000000004 -4.500000000000001 0.0
    vertex 2.0594897910111674 -1.433858694494202 0.0
  endloop
endfacet
facet normal -0.0 -0.0 1.0
  outer loop
    vertex 2.0594897910111674 -1.433858694494202 0.0
    vertex 2.5000000000000004 -4.500000000000001 0.0
    vertex 2.4456097505146284 -1.4990135759094785 0.0
  endloop
endfacet
facet normal -0.0 -0.0 1.0
  outer loop
    vertex 2.4456097505146284 -1.4990135759094785 0.0
    vertex 2.5000000000000004 -4.500000000000001 0.0
    vertex 2.491207299963975 -1.4946856812146392 0.0
  endloop
endfacet
facet normal -0.0 -0.0 1.0
  outer loop
    vertex 2.491207299963975 -1.4946856812146392 0.0
    vertex 2.5000000000000004 -4.500000000000001 0.0
    vertex 2.8354363156363798 -1.462013159363586 0.0
  endloop
endfacet
facet normal -0.0 -0.0 1.0
  outer loop
    vertex 2.8354363156363798 -1.462013159363586 0.0
    vertex 2.5000000000000004 -4.500000000000001 0.0
    vertex 10.999999999999996 -4.500000000000001 0.0
  endloop
endfacet
facet normal -0.0 -0.0 1.0
  outer loop
    vertex 2.8354363156363798 -1.462013159363586 0.0
    vertex 10.999999999999996 -4.500000000000001 0.0
    vertex 3.202403450182233 -1.3253789620980478 0.0
  endloop
endfacet
facet normal -0.0 -0.0 1.0
  outer loop
    vertex 3.202403450182233 -1.3253789620980478 0.0
    vertex 10.999999999999996 -4.500000000000001 0.0
    vertex 3.521502950374753 -1.0984223788578227 0.0
  endloop
endfacet
facet normal -0.0 -0.0 1.0
  outer loop
    vertex 3.521502950374753 -1.0984223788578227 0.0
    vertex 10.999999999999996 -4.500000000000001 0.0
    vertex 3.770988712612675 -0.7966101257272455 0.0
  endloop
endfacet
facet normal -0.0 -0.0 1.0
  outer loop
    vertex 3.770988712612675 -0.7966101257272455 0.0
    vertex 10.999999999999996 -4.500000000000001 0.0
    vertex 3.9338586944942016 -0.44051020898883386 0.0
  endloop
endfacet
facet normal -0.0 -0.0 1.0
  outer loop
    vertex 3.9338586944942016 -0.44051020898883386 0.0
    vertex 10.999999999999996 -4.500000000000001 0.0
    vertex 3.999013575909478 -0.05439024948537314 0.0
  endloop
endfacet
facet normal -0.0 -0.0 1.0
  outer loop
    vertex 2.5543902494853734 1.4990135759094771 0.0
    vertex 2.5000000000000004 4.499999999999999 0.0
    vertex 2.4861738665297866 1.4925388130009447 0.0
  endloop
endfacet
facet normal -0.0 -0.0 1.0
  outer loop
    vertex 2.5000000000000004 4.499999999999999 0.0
    vertex 2.5543902494853734 1.4990135759094771 0.0
    vertex 10.999999999999998 4.499999999999999 0.0
  endloop
endfacet
facet normal -0.0 -0.0 1.0
  outer loop
    vertex 10.999999999999998 4.499999999999999 0.0
    vertex 2.5543902494853734 1.4990135759094771 0.0
    vertex 2.9405102089888335 1.4338586944942004 0.0
  endloop
endfacet
facet normal -0.0 -0.0 1.0
  outer loop
    vertex 10.999999999999998 4.499999999999999 0.0
    vertex 2.9405102089888335 1.4338586944942004 0.0
    vertex 3.2966101257272453 1.2709887126126735 0.0
  endloop
endfacet
facet normal -0.0 -0.0 1.0
  outer loop
    vertex 10.999999999999998 4.499999999999999 0.0
    vertex 3.2966101257272453 1.2709887126126735 0.0
    vertex 3.5984223788578222 1.0215029503747515 0.0
  endloop
endfacet
facet normal -0.0 -0.0 1.0
  outer loop
    vertex 10.999999999999998 4.499999999999999 0.0
    vertex 3.5984223788578222 1.0215029503747515 0.0
    vertex 3.825378962098047 0.7024034501822319 0.0
  endloop
endfacet
facet normal -0.0 -0.0 1.0
  outer loop
    vertex 10.999999999999998 4.499999999999999 0.0
    vertex 3.825378962098047 0.7024034501822319 0.0
    vertex 3.962013159363586 0.33543631563637805 0.0
  endloop
endfacet
facet normal -0.0 -0.0 1.0
  outer loop
    vertex 10.999999999999998 4.499999999999999 0.0
    vertex 3.962013159363586 0.33543631563637805 0.0
    vertex 3.999013575909478 -0.05439024948537314 0.0
  endloop
endfacet
facet normal -0.0 -0.0 1.0
  outer loop
    vertex 10.999999999999998 4.499999999999999 0.0
    vertex 3.999013575909478 -0.05439024948537314 0.0
    vertex 10.999999999999996 -4.500000000000001 0.0
  endloop
endfacet
facet normal 0.09449040052567725 -0.9955257727495042 -1.1771821482050203e-32
  outer loop
    vertex 2.8354363156363798 -1.462013159363586 3.0
    vertex 2.491207299963975 -1.4946856812146392 0.0
    vertex 2.8354363156363798 -1.462013159363586 0.0
  endloop
endfacet
facet normal 0.09449040052567725 -0.9955257727495042 -1.1771821482050203e-32
  outer loop
    vertex 2.491207299963975 -1.4946856812146392 0.0
    vertex 2.8354363156363798 -1.462013159363586 3.0
    vertex 2.4456097505146284 -1.4990135759094785 0.0
  endloop
endfacet
facet normal 0.09449040052567725 -0.9955257727495042 -1.1771821482050203e-32
  outer loop
    vertex 2.4456097505146284 -1.4990135759094785 0.0
    vertex 2.8354363156363798 -1.462013159363586 3.0
    vertex 2.4456097505146284 -1.4990135759094785 3.0
  endloop
endfacet
facet normal 0.09449040052567725 -0.9955257727495042 -1.1771821482050203e-32
  outer loop
    vertex 2.4456097505146284 -1.4990135759094785 3.0
    vertex 2.8354363156363798 -1.462013159363586 3.0
    vertex 2.491207299963975 -1.4946856812146392 3.0
  endloop
endfacet
facet normal 0.3489317480821249 -0.9371481393997176 0.0
  outer loop
    vertex 3.202403450182233 -1.3253789620980478 3.0
    vertex 2.8354363156363798 -1.462013159363586 0.0
    vertex 3.202403450182233 -1.3253789620980478 0.0
  endloop
endfacet
facet normal 0.3489317480821249 -0.9371481393997176 0.0
  outer loop
    vertex 2.8354363156363798 -1.462013159363586 0.0
    vertex 3.202403450182233 -1.3253789620980478 3.0
    vertex 2.8354363156363798 -1.462013159363586 3.0
  endloop
endfacet
facet normal 0.5795939736437542 -0.8149054090603665 0.0
  outer loop
    vertex 3.521502950374753 -1.0984223788578227 3.0
    vertex 3.202403450182233 -1.3253789620980478 0.0
    vertex 3.521502950374753 -1.0984223788578227 0.0
  endloop
endfacet
facet normal 0.5795939736437542 -0.8149054090603665 0.0
  outer loop
    vertex 3.202403450182233 -1.3253789620980478 0.0
    vertex 3.521502950374753 -1.0984223788578227 3.0
    vertex 3.202403450182233 -1.3253789620980478 3.0
  endloop
endfacet
facet normal 0.7707578277258916 -0.6371282217884127 0.0
  outer loop
    vertex 3.770988712612675 -0.7966101257272455 0.0
    vertex 3.521502950374753 -1.0984223788578227 3.0
    vertex 3.521502950374753 -1.0984223788578227 0.0
  endloop
endfacet
facet normal 0.7707578277258916 -0.6371282217884127 0.0
  outer loop
    vertex 3.521502950374753 -1.0984223788578227 3.0
    vertex 3.770988712612675 -0.7966101257272455 0.0
    vertex 3.770988712612675 -0.7966101257272455 3.0
  endloop
endfacet
facet normal 0.9093958095860432 -0.415931799105749 0.0
  outer loop
    vertex 3.9338586944942016 -0.44051020898883386 0.0
    vertex 3.770988712612675 -0.7966101257272455 3.0
    vertex 3.770988712612675 -0.7966101257272455 0.0
  endloop
endfacet
facet normal 0.9093958095860432 -0.415931799105749 0.0
  outer loop
    vertex 3.770988712612675 -0.7966101257272455 3.0
    vertex 3.9338586944942016 -0.44051020898883386 0.0
    vertex 3.9338586944942016 -0.44051020898883386 3.0
  endloop
endfacet
facet normal 0.9860599698705385 -0.16639031167382642 0.0
  outer loop
    vertex 3.999013575909478 -0.05439024948537314 0.0
    vertex 3.9338586944942016 -0.44051020898883386 3.0
    vertex 3.9338586944942016 -0.44051020898883386 0.0
  endloop
endfacet
facet normal 0.9860599698705385 -0.16639031167382642 0.0
  outer loop
    vertex 3.9338586944942016 -0.44051020898883386 3.0
    vertex 3.999013575909478 -0.05439024948537314 0.0
    vertex 3.999013575909478 -0.05439024948537314 3.0
  endloop
endfacet
facet normal 0.9955257727495043 0.09449040052567617 0.0
  outer loop
    vertex 3.962013159363586 0.33543631563637805 0.0
    vertex 3.999013575909478 -0.05439024948537314 3.0
    vertex 3.999013575909478 -0.05439024948537314 0.0
  endloop
endfacet
facet normal 0.9955257727495043 0.09449040052567617 0.0
  outer loop
    vertex 3.999013575909478 -0.05439024948537314 3.0
    vertex 3.962013159363586 0.33543631563637805 0.0
    vertex 3.962013159363586 0.33543631563637805 3.0
  endloop
endfacet
facet normal 0.9371481393997172 0.3489317480821264 0.0
  outer loop
    vertex 3.825378962098047 0.7024034501822319 0.0
    vertex 3.962013159363586 0.33543631563637805 3.0
    vertex 3.962013159363586 0.33543631563637805 0.0
  endloop
endfacet
facet normal 0.9371481393997172 0.3489317480821264 0.0
  outer loop
    vertex 3.962013159363586 0.33543631563637805 3.0
    vertex 3.825378962098047 0.7024034501822319 0.0
    vertex 3.825378962098047 0.7024034501822319 3.0
  endloop
endfacet
facet normal 0.8149054090603661 0.5795939736437548 0.0
  outer loop
    vertex 3.5984223788578222 1.0215029503747515 0.0
    vertex 3.825378962098047 0.7024034501822319 3.0
    vertex 3.825378962098047 0.7024034501822319 0.0
  endloop
endfacet
facet normal 0.8149054090603661 0.5795939736437548 0.0
  outer loop
    vertex 3.825378962098047 0.7024034501822319 3.0
    vertex 3.5984223788578222 1.0215029503747515 0.0
    vertex 3.5984223788578222 1.0215029503747515 3.0
  endloop
endfacet
facet normal 0.6371282217884137 0.7707578277258909 0.0
  outer loop
    vertex 3.2966101257272453 1.2709887126126735 3.0
    vertex 3.5984223788578222 1.0215029503747515 0.0
    vertex 3.2966101257272453 1.2709887126126735 0.0
  endloop
endfacet
facet normal 0.6371282217884137 0.7707578277258909 0.0
  outer loop
    vertex 3.5984223788578222 1.0215029503747515 0.0
    vertex 3.2966101257272453 1.2709887126126735 3.0
    vertex 3.5984223788578222 1.0215029503747515 3.0
  endloop
endfacet
facet normal 0.41593179910574946 0.909395809586043 0.0
  outer loop
    vertex 2.9405102089888335 1.4338586944942004 3.0
    vertex 3.2966101257272453 1.2709887126126735 0.0
    vertex 2.9405102089888335 1.4338586944942004 0.0
  endloop
endfacet
facet normal 0.41593179910574946 0.909395809586043 0.0
  outer loop
    vertex 3.2966101257272453 1.2709887126126735 0.0
    vertex 2.9405102089888335 1.4338586944942004 3.0
    vertex 3.2966101257272453 1.2709887126126735 3.0
  endloop
endfacet
facet normal 0.16639031167382712 0.9860599698705383 0.0
  outer loop
    vertex 2.5543902494853734 1.4990135759094771 3.0
    vertex 2.9405102089888335 1.4338586944942004 0.0
    vertex 2.5543902494853734 1.4990135759094771 0.0
  endloop
endfacet
facet normal 0.16639031167382712 0.9860599698705383 0.0
  outer loop
    vertex 2.9405102089888335 1.4338586944942004 0.0
    vertex 2.5543902494853734 1.4990135759094771 3.0
    vertex 2.9405102089888335 1.4338586944942004 3.0
  endloop
endfacet
facet normal -0.0944904005256796 0.9955257727495038 0.0
  outer loop
    vertex 2.4861738665297866 1.4925388130009447 3.0
    vertex 2.5543902494853734 1.4990135759094771 0.0
    vertex 2.4861738665297866 1.4925388130009447 0.0
  endloop
endfacet
facet normal -0.0944904005256796 0.9955257727495038 0.0
  outer loop
    vertex 2.5543902494853734 1.4990135759094771 0.0
    vertex 2.4861738665297866 1.4925388130009447 3.0
    vertex 2.5543902494853734 1.4990135759094771 3.0
  endloop
endfacet
facet normal -1.298864566210766e-18 2.386830544655828e-22 -1.0
  outer loop
    vertex 1.0000000000000009 4.499999999999999 3.0
    vertex 1.0661413055057993 0.4405102089888332 3.0
    vertex 1.0009864240905226 0.05439024948537182 3.0
  endloop
endfacet
facet normal -1.298864566210766e-18 2.386830544655828e-22 -1.0
  outer loop
    vertex 1.0661413055057993 0.4405102089888332 3.0
    vertex 1.0000000000000009 4.499999999999999 3.0
    vertex 2.5000000000000004 4.499999999999999 3.0
  endloop
endfacet
facet normal -1.298864566210766e-18 2.386830544655828e-22 -1.0
  outer loop
    vertex 1.0661413055057993 0.4405102089888332 3.0
    vertex 2.5000000000000004 4.499999999999999 3.0
    vertex 1.229011287387326 0.7966101257272444 3.0
  endloop
endfacet
facet normal -1.298864566210766e-18 2.386830544655828e-22 -1.0
  outer loop
    vertex 1.229011287387326 0.7966101257272444 3.0
    vertex 2.5000000000000004 4.499999999999999 3.0
    vertex 1.478497049625248 1.0984223788578216 3.0
  endloop
endfacet
facet normal -1.298864566210766e-18 2.386830544655828e-22 -1.0
  outer loop
    vertex 1.478497049625248 1.0984223788578216 3.0
    vertex 2.5000000000000004 4.499999999999999 3.0
    vertex 1.797596549817768 1.3253789620980467 3.0
  endloop
endfacet
facet normal -1.298864566210766e-18 2.386830544655828e-22 -1.0
  outer loop
    vertex 1.797596549817768 1.3253789620980467 3.0
    vertex 2.5000000000000004 4.499999999999999 3.0
    vertex 2.1645636843636216 1.4620131593635846 3.0
  endloop
endfacet
facet normal -1.298864566210766e-18 2.386830544655828e-22 -1.0
  outer loop
    vertex 2.1645636843636216 1.4620131593635846 3.0
    vertex 2.5000000000000004 4.499999999999999 3.0
    vertex 2.4861738665297866 1.4925388130009447 3.0
  endloop
endfacet
facet normal -1.298864566210766e-18 2.386830544655828e-22 -1.0
  outer loop
    vertex 2.4861738665297866 1.4925388130009447 3.0
    vertex 2.5000000000000004 4.499999999999999 3.0
    vertex 2.5543902494853734 1.4990135759094771 3.0
  endloop
endfacet
facet normal -1.298864566210766e-18 2.386830544655828e-22 -1.0
  outer loop
    vertex 2.5543902494853734 1.4990135759094771 3.0
    vertex 2.5000000000000004 4.499999999999999 3.0
    vertex 6.999999999999997 4.499999999999999 3.0
  endloop
endfacet
facet normal -1.298864566210766e-18 2.386830544655828e-22 -1.0
  outer loop
    vertex 2.5543902494853734 1.4990135759094771 3.0
    vertex 6.999999999999997 4.499999999999999 3.0
    vertex 2.9405102089888335 1.4338586944942004 3.0
  endloop
endfacet
facet normal -1.298864566210766e-18 2.386830544655828e-22 -1.0
  outer loop
    vertex 2.9405102089888335 1.4338586944942004 3.0
    vertex 6.999999999999997 4.499999999999999 3.0
    vertex 3.2966101257272453 1.2709887126126735 3.0
  endloop
endfacet
facet normal -1.298864566210766e-18 2.386830544655828e-22 -1.0
  outer loop
    vertex 3.2966101257272453 1.2709887126126735 3.0
    vertex 6.999999999999997 4.499999999999999 3.0
    vertex 3.5984223788578222 1.0215029503747515 3.0
  endloop
endfacet
facet normal -1.298864566210766e-18 2.386830544655828e-22 -1.0
  outer loop
    vertex 3.5984223788578222 1.0215029503747515 3.0
    vertex 6.999999999999997 4.499999999999999 3.0
    vertex 3.825378962098047 0.7024034501822319 3.0
  endloop
endfacet
facet normal -1.298864566210766e-18 2.386830544655828e-22 -1.0
  outer loop
    vertex 3.825378962098047 0.7024034501822319 3.0
    vertex 6.999999999999997 4.499999999999999 3.0
    vertex 3.962013159363586 0.33543631563637805 3.0
  endloop
endfacet
facet normal -1.298864566210766e-18 2.386830544655828e-22 -1.0
  outer loop
    vertex 3.962013159363586 0.33543631563637805 3.0
    vertex 6.999999999999997 4.499999999999999 3.0
    vertex 3.999013575909478 -0.05439024948537314 3.0
  endloop
endfacet
facet normal -1.298864566210766e-18 2.386830544655828e-22 -1.0
  outer loop
    vertex 1.037986840636415 -0.3354363156363791 3.0
    vertex 1.0000000000000009 -4.499999999999999 3.0
    vertex 1.0000000000000009 -3.6423109483557615e-16 3.0
  endloop
endfacet
facet normal -1.298864566210766e-18 2.386830544655828e-22 -1.0
  outer loop
    vertex 1.0000000000000009 -4.499999999999999 3.0
    vertex 1.037986840636415 -0.3354363156363791 3.0
    vertex 2.5000000000000004 -4.500000000000001 3.0
  endloop
endfacet
facet normal -1.298864566210766e-18 2.386830544655828e-22 -1.0
  outer loop
    vertex 2.5000000000000004 -4.500000000000001 3.0
    vertex 1.037986840636415 -0.3354363156363791 3.0
    vertex 1.174621037901953 -0.7024034501822326 3.0
  endloop
endfacet
facet normal -1.298864566210766e-18 2.386830544655828e-22 -1.0
  outer loop
    vertex 2.5000000000000004 -4.500000000000001 3.0
    vertex 1.174621037901953 -0.7024034501822326 3.0
    vertex 1.4015776211421784 -1.021502950374753 3.0
  endloop
endfacet
facet normal -1.298864566210766e-18 2.386830544655828e-22 -1.0
  outer loop
    vertex 2.5000000000000004 -4.500000000000001 3.0
    vertex 1.4015776211421784 -1.021502950374753 3.0
    vertex 1.703389874272756 -1.2709887126126753 3.0
  endloop
endfacet
facet normal -1.298864566210766e-18 2.386830544655828e-22 -1.0
  outer loop
    vertex 2.5000000000000004 -4.500000000000001 3.0
    vertex 1.703389874272756 -1.2709887126126753 3.0
    vertex 2.0594897910111674 -1.433858694494202 3.0
  endloop
endfacet
facet normal -1.298864566210766e-18 2.386830544655828e-22 -1.0
  outer loop
    vertex 2.5000000000000004 -4.500000000000001 3.0
    vertex 2.0594897910111674 -1.433858694494202 3.0
    vertex 2.4456097505146284 -1.4990135759094785 3.0
  endloop
endfacet
facet normal -1.298864566210766e-18 2.386830544655828e-22 -1.0
  outer loop
    vertex 2.5000000000000004 -4.500000000000001 3.0
    vertex 2.4456097505146284 -1.4990135759094785 3.0
    vertex 2.491207299963975 -1.4946856812146392 3.0
  endloop
endfacet
facet normal -1.298864566210766e-18 2.386830544655828e-22 -1.0
  outer loop
    vertex 2.5000000000000004 -4.500000000000001 3.0
    vertex 2.491207299963975 -1.4946856812146392 3.0
    vertex 2.8354363156363798 -1.462013159363586 3.0
  endloop
endfacet
facet normal -1.298864566210766e-18 2.386830544655828e-22 -1.0
  outer loop
    vertex 2.5000000000000004 -4.500000000000001 3.0
    vertex 2.8354363156363798 -1.462013159363586 3.0
    vertex 6.999999999999997 -4.500000000000001 3.0
  endloop
endfacet
facet normal -1.298864566210766e-18 2.386830544655828e-22 -1.0
  outer loop
    vertex 6.999999999999997 -4.500000000000001 3.0
    vertex 2.8354363156363798 -1.462013159363586 3.0
    vertex 3.202403450182233 -1.3253789620980478 3.0
  endloop
endfacet
facet normal -1.298864566210766e-18 2.386830544655828e-22 -1.0
  outer loop
    vertex 6.999999999999997 -4.500000000000001 3.0
    vertex 3.202403450182233 -1.3253789620980478 3.0
    vertex 3.521502950374753 -1.0984223788578227 3.0
  endloop
endfacet
facet normal -1.298864566210766e-18 2.386830544655828e-22 -1.0
  outer loop
    vertex 6.999999999999997 -4.500000000000001 3.0
    vertex 3.521502950374753 -1.0984223788578227 3.0
    vertex 3.770988712612675 -0.7966101257272455 3.0
  endloop
endfacet
facet normal -1.298864566210766e-18 2.386830544655828e-22 -1.0
  outer loop
    vertex 6.999999999999997 -4.500000000000001 3.0
    vertex 3.770988712612675 -0.7966101257272455 3.0
    vertex 3.9338586944942016 -0.44051020898883386 3.0
  endloop
endfacet
facet normal -1.298864566210766e-18 2.386830544655828e-22 -1.0
  outer loop
    vertex 6.999999999999997 -4.500000000000001 3.0
    vertex 3.9338586944942016 -0.44051020898883386 3.0
    vertex 3.999013575909478 -0.05439024948537314 3.0
  endloop
endfacet
facet normal -1.298864566210766e-18 2.386830544655828e-22 -1.0
  outer loop
    vertex 6.999999999999997 -4.500000000000001 3.0
    vertex 3.999013575909478 -0.05439024948537314 3.0
    vertex 6.999999999999997 4.499999999999999 3.0
  endloop
endfacet
facet normal -0.6371282217884131 -0.7707578277258915 -0.0
  outer loop
    vertex 1.703389874272756 -1.2709887126126753 3.0
    vertex 1.4015776211421784 -1.021502950374753 0.0
    vertex 1.703389874272756 -1.2709887126126753 0.0
  endloop
endfacet
facet normal -0.6371282217884131 -0.7707578277258915 -0.0
  outer loop
    vertex 1.4015776211421784 -1.021502950374753 0.0
    vertex 1.703389874272756 -1.2709887126126753 3.0
    vertex 1.4015776211421784 -1.021502950374753 3.0
  endloop
endfacet
facet normal -0.4159317991057495 -0.9093958095860432 -0.0
  outer loop
    vertex 2.0594897910111674 -1.433858694494202 3.0
    vertex 1.703389874272756 -1.2709887126126753 0.0
    vertex 2.0594897910111674 -1.433858694494202 0.0
  endloop
endfacet
facet normal -0.4159317991057495 -0.9093958095860432 -0.0
  outer loop
    vertex 1.703389874272756 -1.2709887126126753 0.0
    vertex 2.0594897910111674 -1.433858694494202 3.0
    vertex 1.703389874272756 -1.2709887126126753 3.0
  endloop
endfacet
facet normal -0.1663903116738264 -0.9860599698705385 -0.0
  outer loop
    vertex 2.4456097505146284 -1.4990135759094785 3.0
    vertex 2.0594897910111674 -1.433858694494202 0.0
    vertex 2.4456097505146284 -1.4990135759094785 0.0
  endloop
endfacet
facet normal -0.1663903116738264 -0.9860599698705385 -0.0
  outer loop
    vertex 2.0594897910111674 -1.433858694494202 0.0
    vertex 2.4456097505146284 -1.4990135759094785 3.0
    vertex 2.0594897910111674 -1.433858694494202 3.0
  endloop
endfacet
facet normal -0.34893174808212424 0.9371481393997179 0.0
  outer loop
    vertex 1.797596549817768 1.3253789620980467 3.0
    vertex 2.1645636843636216 1.4620131593635846 0.0
    vertex 1.797596549817768 1.3253789620980467 0.0
  endloop
endfacet
facet normal -0.34893174808212424 0.9371481393997179 0.0
  outer loop
    vertex 2.1645636843636216 1.4620131593635846 0.0
    vertex 1.797596549817768 1.3253789620980467 3.0
    vertex 2.1645636843636216 1.4620131593635846 3.0
  endloop
endfacet
facet normal -0.5795939736437548 0.8149054090603662 0.0
  outer loop
    vertex 1.478497049625248 1.0984223788578216 3.0
    vertex 1.797596549817768 1.3253789620980467 0.0
    vertex 1.478497049625248 1.0984223788578216 0.0
  endloop
endfacet
facet normal -0.5795939736437548 0.8149054090603662 0.0
  outer loop
    vertex 1.797596549817768 1.3253789620980467 0.0
    vertex 1.478497049625248 1.0984223788578216 3.0
    vertex 1.797596549817768 1.3253789620980467 3.0
  endloop
endfacet
facet normal -0.7707578277258915 0.6371282217884129 0.0
  outer loop
    vertex 1.478497049625248 1.0984223788578216 3.0
    vertex 1.229011287387326 0.7966101257272444 0.0
    vertex 1.229011287387326 0.7966101257272444 3.0
  endloop
endfacet
facet normal -0.7707578277258915 0.6371282217884129 0.0
  outer loop
    vertex 1.229011287387326 0.7966101257272444 0.0
    vertex 1.478497049625248 1.0984223788578216 3.0
    vertex 1.478497049625248 1.0984223788578216 0.0
  endloop
endfacet
facet normal -0.9093958095860428 0.41593179910574984 0.0
  outer loop
    vertex 1.229011287387326 0.7966101257272444 3.0
    vertex 1.0661413055057993 0.4405102089888332 0.0
    vertex 1.0661413055057993 0.4405102089888332 3.0
  endloop
endfacet
facet normal -0.9093958095860428 0.41593179910574984 0.0
  outer loop
    vertex 1.0661413055057993 0.4405102089888332 0.0
    vertex 1.229011287387326 0.7966101257272444 3.0
    vertex 1.229011287387326 0.7966101257272444 0.0
  endloop
endfacet
facet normal -0.9860599698705383 0.166390311673827 0.0
  outer loop
    vertex 1.0661413055057993 0.4405102089888332 3.0
    vertex 1.0009864240905226 0.05439024948537182 0.0
    vertex 1.0009864240905226 0.05439024948537182 3.0
  endloop
endfacet
facet normal -0.9860599698705383 0.166390311673827 0.0
  outer loop
    vertex 1.0009864240905226 0.05439024948537182 0.0
    vertex 1.0661413055057993 0.4405102089888332 3.0
    vertex 1.0661413055057993 0.4405102089888332 0.0
  endloop
endfacet
facet normal -0.995193062610639 -0.09793046822539686 -0.0006257194351366863
  outer loop
    vertex 1.0000000000000009 -3.6423109483557615e-16 3.0
    vertex 1.037986840636415 -0.3354363156363791 0.0
    vertex 1.037986840636415 -0.3354363156363791 3.0
  endloop
endfacet
facet normal -0.995193062610639 -0.09793046822539686 -0.0006257194351366863
  outer loop
    vertex 1.037986840636415 -0.3354363156363791 0.0
    vertex 1.0000000000000009 -3.6423109483557615e-16 3.0
    vertex 1.0009864240905226 0.05439024948537182 0.0
  endloop
endfacet
facet normal -0.995193062610639 -0.09793046822539686 -0.0006257194351366863
  outer loop
    vertex 1.0009864240905226 0.05439024948537182 0.0
    vertex 1.0000000000000009 -3.6423109483557615e-16 3.0
    vertex 1.0009864240905226 0.05439024948537182 3.0
  endloop
endfacet
facet normal -0.9371481393997176 -0.3489317480821247 -0.0
  outer loop
    vertex 1.037986840636415 -0.3354363156363791 3.0
    vertex 1.174621037901953 -0.7024034501822326 0.0
    vertex 1.174621037901953 -0.7024034501822326 3.0
  endloop
endfacet
facet normal -0.9371481393997176 -0.3489317480821247 -0.0
  outer loop
    vertex 1.174621037901953 -0.7024034501822326 0.0
    vertex 1.037986840636415 -0.3354363156363791 3.0
    vertex 1.037986840636415 -0.3354363156363791 0.0
  endloop
endfacet
facet normal -0.8149054090603662 -0.5795939736437546 -0.0
  outer loop
    vertex 1.174621037901953 -0.7024034501822326 3.0
    vertex 1.4015776211421784 -1.021502950374753 0.0
    vertex 1.4015776211421784 -1.021502950374753 3.0
  endloop
endfacet
facet normal -0.8149054090603662 -0.5795939736437546 -0.0
  outer loop
    vertex 1.4015776211421784 -1.021502950374753 0.0
    vertex 1.174621037901953 -0.7024034501822326 3.0
    vertex 1.174621037901953 -0.7024034501822326 0.0
  endloop
endfacet
facet normal -0.09449040052567634 0.995525772749504 0.0
  outer loop
    vertex 2.1645636843636216 1.4620131593635846 3.0
    vertex 2.4861738665297866 1.4925388130009447 0.0
    vertex 2.1645636843636216 1.4620131593635846 0.0
  endloop
endfacet
facet normal -0.09449040052567634 0.995525772749504 0.0
  outer loop
    vertex 2.4861738665297866 1.4925388130009447 0.0
    vertex 2.1645636843636216 1.4620131593635846 3.0
    vertex 2.4861738665297866 1.4925388130009447 3.0
  endloop
endfacet
facet normal 1.0 -0.0 -0.0
  outer loop
    vertex 6.999999999999997 4.499999999999999 3.0
    vertex 6.999999999999997 -4.5 23.000000000000007
    vertex 6.999999999999997 -4.500000000000001 3.0
  endloop
endfacet
facet normal 1.0 -0.0 -0.0
  outer loop
    vertex 6.999999999999997 -4.5 23.000000000000007
    vertex 6.999999999999997 4.499999999999999 3.0
    vertex 6.999999999999997 4.499999999999995 23.000000000000007
  endloop
endfacet
facet normal -0.7933533402912367 0.6087614290087189 0.0
  outer loop
    vertex -3.5606601717798223 1.0606601717798203 3.0
    vertex -3.7990381056766584 0.7499999999999982 0.0
    vertex -3.7990381056766584 0.7499999999999982 3.0
  endloop
endfacet
facet normal -0.7933533402912367 0.6087614290087189 0.0
  outer loop
    vertex -3.7990381056766584 0.7499999999999982 0.0
    vertex -3.5606601717798223 1.0606601717798203 3.0
    vertex -3.5606601717798223 1.0606601717798203 0.0
  endloop
endfacet
facet normal -0.6087614290087204 0.7933533402912353 0.0
  outer loop
    vertex -3.5606601717798223 1.0606601717798203 3.0
    vertex -3.250000000000001 1.299038105676657 0.0
    vertex -3.5606601717798223 1.0606601717798203 0.0
  endloop
endfacet
facet normal -0.6087614290087204 0.7933533402912353 0.0
  outer loop
    vertex -3.250000000000001 1.299038105676657 0.0
    vertex -3.5606601717798223 1.0606601717798203 3.0
    vertex -3.250000000000001 1.299038105676657 3.0
  endloop
endfacet
facet normal -0.38268343236509045 0.9238795325112865 0.0
  outer loop
    vertex -3.250000000000001 1.299038105676657 3.0
    vertex -2.888228567653783 1.4488887394336014 0.0
    vertex -3.250000000000001 1.299038105676657 0.0
  endloop
endfacet
facet normal -0.38268343236509045 0.9238795325112865 0.0
  outer loop
    vertex -2.888228567653783 1.4488887394336014 0.0
    vertex -3.250000000000001 1.299038105676657 3.0
    vertex -2.888228567653783 1.4488887394336014 3.0
  endloop
endfacet
facet normal -0.1305261922200518 0.9914448613738105 -0.0
  outer loop
    vertex -2.888228567653783 1.4488887394336014 3.0
    vertex -2.5000000000000004 1.4999999999999991 0.0
    vertex -2.888228567653783 1.4488887394336014 0.0
  endloop
endfacet
facet normal -0.1305261922200518 0.9914448613738105 -0.0
  outer loop
    vertex -2.5000000000000004 1.4999999999999991 0.0
    vertex -2.888228567653783 1.4488887394336014 3.0
    vertex -2.5000000000000004 1.4999999999999991 3.0
  endloop
endfacet
facet normal 0.13052619222005138 0.9914448613738105 -0.0
  outer loop
    vertex -2.5000000000000004 1.4999999999999991 3.0
    vertex -2.1117714323462193 1.4488887394336016 0.0
    vertex -2.5000000000000004 1.4999999999999991 0.0
  endloop
endfacet
facet normal 0.13052619222005138 0.9914448613738105 -0.0
  outer loop
    vertex -2.1117714323462193 1.4488887394336016 0.0
    vertex -2.5000000000000004 1.4999999999999991 3.0
    vertex -2.1117714323462193 1.4488887394336016 3.0
  endloop
endfacet
facet normal 0.38268343236508945 0.9238795325112868 0.0
  outer loop
    vertex -2.1117714323462193 1.4488887394336016 3.0
    vertex -1.7500000000000002 1.2990381056766573 0.0
    vertex -2.1117714323462193 1.4488887394336016 0.0
  endloop
endfacet
facet normal 0.38268343236508945 0.9238795325112868 0.0
  outer loop
    vertex -1.7500000000000002 1.2990381056766573 0.0
    vertex -2.1117714323462193 1.4488887394336016 3.0
    vertex -1.7500000000000002 1.2990381056766573 3.0
  endloop
endfacet
facet normal 0.6087614290087211 0.793353340291235 0.0
  outer loop
    vertex -1.7500000000000002 1.2990381056766573 3.0
    vertex -1.4393398282201793 1.0606601717798205 0.0
    vertex -1.7500000000000002 1.2990381056766573 0.0
  endloop
endfacet
facet normal 0.6087614290087211 0.793353340291235 0.0
  outer loop
    vertex -1.4393398282201793 1.0606601717798205 0.0
    vertex -1.7500000000000002 1.2990381056766573 3.0
    vertex -1.4393398282201793 1.0606601717798205 3.0
  endloop
endfacet
facet normal 0.793353340291235 0.608761429008721 0.0
  outer loop
    vertex -1.4393398282201793 1.0606601717798205 0.0
    vertex -1.2009618943233424 0.7499999999999994 3.0
    vertex -1.2009618943233424 0.7499999999999994 0.0
  endloop
endfacet
facet normal 0.793353340291235 0.608761429008721 0.0
  outer loop
    vertex -1.2009618943233424 0.7499999999999994 3.0
    vertex -1.4393398282201793 1.0606601717798205 0.0
    vertex -1.4393398282201793 1.0606601717798205 3.0
  endloop
endfacet
facet normal 0.9238795325112867 0.3826834323650898 0.0
  outer loop
    vertex -1.2009618943233424 0.7499999999999994 0.0
    vertex -1.0511112605663981 0.3882285676537807 3.0
    vertex -1.0511112605663981 0.3882285676537807 0.0
  endloop
endfacet
facet normal 0.9238795325112867 0.3826834323650898 0.0
  outer loop
    vertex -1.0511112605663981 0.3882285676537807 3.0
    vertex -1.2009618943233424 0.7499999999999994 0.0
    vertex -1.2009618943233424 0.7499999999999994 3.0
  endloop
endfacet
facet normal 0.9914448613738105 0.13052619222005168 -0.0
  outer loop
    vertex -1.0511112605663981 0.3882285676537807 0.0
    vertex -1.0000000000000004 -6.131431107009229e-16 3.0
    vertex -1.0000000000000004 -6.131431107009229e-16 0.0
  endloop
endfacet
facet normal 0.9914448613738105 0.13052619222005168 -0.0
  outer loop
    vertex -1.0000000000000004 -6.131431107009229e-16 3.0
    vertex -1.0511112605663981 0.3882285676537807 0.0
    vertex -1.0511112605663981 0.3882285676537807 3.0
  endloop
endfacet
facet normal 0.9914448613738105 -0.13052619222005132 -0.0
  outer loop
    vertex -1.0000000000000004 -6.131431107009229e-16 0.0
    vertex -1.051111260566398 -0.38822856765378166 3.0
    vertex -1.051111260566398 -0.38822856765378166 0.0
  endloop
endfacet
facet normal 0.9914448613738105 -0.13052619222005132 -0.0
  outer loop
    vertex -1.051111260566398 -0.38822856765378166 3.0
    vertex -1.0000000000000004 -6.131431107009229e-16 0.0
    vertex -1.0000000000000004 -6.131431107009229e-16 3.0
  endloop
endfacet
facet normal 0.9238795325112868 -0.38268343236508984 0.0
  outer loop
    vertex -1.051111260566398 -0.38822856765378166 0.0
    vertex -1.2009618943233422 -0.7500000000000003 3.0
    vertex -1.2009618943233422 -0.7500000000000003 0.0
  endloop
endfacet
facet normal 0.9238795325112868 -0.38268343236508984 0.0
  outer loop
    vertex -1.2009618943233422 -0.7500000000000003 3.0
    vertex -1.051111260566398 -0.38822856765378166 0.0
    vertex -1.051111260566398 -0.38822856765378166 3.0
  endloop
endfacet
facet normal 0.7933533402912353 -0.6087614290087204 0.0
  outer loop
    vertex -1.2009618943233422 -0.7500000000000003 0.0
    vertex -1.439339828220179 -1.0606601717798219 3.0
    vertex -1.439339828220179 -1.0606601717798219 0.0
  endloop
endfacet
facet normal 0.7933533402912353 -0.6087614290087204 0.0
  outer loop
    vertex -1.439339828220179 -1.0606601717798219 3.0
    vertex -1.2009618943233422 -0.7500000000000003 0.0
    vertex -1.2009618943233422 -0.7500000000000003 3.0
  endloop
endfacet
facet normal 0.608761429008721 -0.793353340291235 0.0
  outer loop
    vertex -1.439339828220179 -1.0606601717798219 3.0
    vertex -1.75 -1.2990381056766584 0.0
    vertex -1.439339828220179 -1.0606601717798219 0.0
  endloop
endfacet
facet normal 0.608761429008721 -0.793353340291235 0.0
  outer loop
    vertex -1.75 -1.2990381056766584 0.0
    vertex -1.439339828220179 -1.0606601717798219 3.0
    vertex -1.75 -1.2990381056766584 3.0
  endloop
endfacet
facet normal 0.3826834323650899 -0.9238795325112868 0.0
  outer loop
    vertex -1.75 -1.2990381056766584 3.0
    vertex -2.111771432346219 -1.448888739433603 0.0
    vertex -1.75 -1.2990381056766584 0.0
  endloop
endfacet
facet normal 0.3826834323650899 -0.9238795325112868 0.0
  outer loop
    vertex -2.111771432346219 -1.448888739433603 0.0
    vertex -1.75 -1.2990381056766584 3.0
    vertex -2.111771432346219 -1.448888739433603 3.0
  endloop
endfacet
facet normal 0.13052619222005182 -0.9914448613738105 0.0
  outer loop
    vertex -2.111771432346219 -1.448888739433603 3.0
    vertex -2.5 -1.5000000000000007 0.0
    vertex -2.111771432346219 -1.448888739433603 0.0
  endloop
endfacet
facet normal 0.13052619222005182 -0.9914448613738105 0.0
  outer loop
    vertex -2.5 -1.5000000000000007 0.0
    vertex -2.111771432346219 -1.448888739433603 3.0
    vertex -2.5 -1.5000000000000007 3.0
  endloop
endfacet
facet normal -0.13052619222005094 -0.9914448613738105 0.0
  outer loop
    vertex -2.5 -1.5000000000000007 3.0
    vertex -2.888228567653781 -1.4488887394336034 0.0
    vertex -2.5 -1.5000000000000007 0.0
  endloop
endfacet
facet normal -0.13052619222005094 -0.9914448613738105 0.0
  outer loop
    vertex -2.888228567653781 -1.4488887394336034 0.0
    vertex -2.5 -1.5000000000000007 3.0
    vertex -2.888228567653781 -1.4488887394336034 3.0
  endloop
endfacet
facet normal -0.3826834323650902 -0.9238795325112867 -0.0
  outer loop
    vertex -2.888228567653781 -1.4488887394336034 3.0
    vertex -3.2499999999999996 -1.2990381056766587 0.0
    vertex -2.888228567653781 -1.4488887394336034 0.0
  endloop
endfacet
facet normal -0.3826834323650902 -0.9238795325112867 -0.0
  outer loop
    vertex -3.2499999999999996 -1.2990381056766587 0.0
    vertex -2.888228567653781 -1.4488887394336034 3.0
    vertex -3.2499999999999996 -1.2990381056766587 3.0
  endloop
endfacet
facet normal -0.6087614290087202 -0.7933533402912355 -0.0
  outer loop
    vertex -3.2499999999999996 -1.2990381056766587 3.0
    vertex -3.560660171779821 -1.0606601717798225 0.0
    vertex -3.2499999999999996 -1.2990381056766587 0.0
  endloop
endfacet
facet normal -0.6087614290087202 -0.7933533402912355 -0.0
  outer loop
    vertex -3.560660171779821 -1.0606601717798225 0.0
    vertex -3.2499999999999996 -1.2990381056766587 3.0
    vertex -3.560660171779821 -1.0606601717798225 3.0
  endloop
endfacet
facet normal -0.7933533402912347 -0.6087614290087212 -0.0
  outer loop
    vertex -3.7990381056766576 -0.7500000000000013 3.0
    vertex -3.560660171779821 -1.0606601717798225 0.0
    vertex -3.560660171779821 -1.0606601717798225 3.0
  endloop
endfacet
facet normal -0.7933533402912347 -0.6087614290087212 -0.0
  outer loop
    vertex -3.560660171779821 -1.0606601717798225 0.0
    vertex -3.7990381056766576 -0.7500000000000013 3.0
    vertex -3.7990381056766576 -0.7500000000000013 0.0
  endloop
endfacet
facet normal -0.9238795325112868 -0.38268343236509006 -0.0
  outer loop
    vertex -3.948888739433602 -0.3882285676537829 3.0
    vertex -3.7990381056766576 -0.7500000000000013 0.0
    vertex -3.7990381056766576 -0.7500000000000013 3.0
  endloop
endfacet
facet normal -0.9238795325112868 -0.38268343236509006 -0.0
  outer loop
    vertex -3.7990381056766576 -0.7500000000000013 0.0
    vertex -3.948888739433602 -0.3882285676537829 3.0
    vertex -3.948888739433602 -0.3882285676537829 0.0
  endloop
endfacet
facet normal -0.9914448613738103 -0.13052619222005324 0.0
  outer loop
    vertex -4.0 -9.805371504451288e-16 3.0
    vertex -3.948888739433602 -0.3882285676537829 0.0
    vertex -3.948888739433602 -0.3882285676537829 3.0
  endloop
endfacet
facet normal -0.9914448613738103 -0.13052619222005324 0.0
  outer loop
    vertex -3.948888739433602 -0.3882285676537829 0.0
    vertex -4.0 -9.805371504451288e-16 3.0
    vertex -4.0 -9.805371504451288e-16 0.0
  endloop
endfacet
facet normal -0.9914448613738105 0.13052619222005188 0.0
  outer loop
    vertex -3.948888739433603 0.3882285676537797 3.0
    vertex -4.0 -9.805371504451288e-16 0.0
    vertex -4.0 -9.805371504451288e-16 3.0
  endloop
endfacet
facet normal -0.9914448613738105 0.13052619222005188 0.0
  outer loop
    vertex -4.0 -9.805371504451288e-16 0.0
    vertex -3.948888739433603 0.3882285676537797 3.0
    vertex -3.948888739433603 0.3882285676537797 0.0
  endloop
endfacet
facet normal -0.9238795325112868 0.38268343236509006 0.0
  outer loop
    vertex -3.7990381056766584 0.7499999999999982 3.0
    vertex -3.948888739433603 0.3882285676537797 0.0
    vertex -3.948888739433603 0.3882285676537797 3.0
  endloop
endfacet
facet normal -0.9238795325112868 0.38268343236509006 0.0
  outer loop
    vertex -3.948888739433603 0.3882285676537797 0.0
    vertex -3.7990381056766584 0.7499999999999982 3.0
    vertex -3.7990381056766584 0.7499999999999982 0.0
  endloop
endfacet
facet normal 0.0 0.0 -1.0
  outer loop
    vertex 10.999999999999996 4.499999999999999 28.000000000000004
    vertex 6.999999999999998 -4.500000000000001 28.000000000000004
    vertex 6.999999999999993 4.4999999999999964 28.000000000000004
  endloop
endfacet
facet normal 0.0 0.0 -1.0
  outer loop
    vertex 6.999999999999998 -4.500000000000001 28.000000000000004
    vertex 10.999999999999996 4.499999999999999 28.000000000000004
    vertex 10.999999999999996 -4.500000000000001 28.000000000000004
  endloop
endfacet
facet normal 1.0 0.0 0.0
  outer loop
    vertex 1.999999999999999 -9.499999999999998 23.000000000000007
    vertex 1.999999999999998 9.499999999999991 32.99999999999999
    vertex 1.999999999999999 -9.5 32.99999999999999
  endloop
endfacet
facet normal 1.0 0.0 0.0
  outer loop
    vertex 1.999999999999998 9.499999999999991 32.99999999999999
    vertex 1.999999999999999 -9.499999999999998 23.000000000000007
    vertex 1.999999999999998 9.499999999999991 23.000000000000007
  endloop
endfacet
facet normal -0.0 -0.0 1.0
  outer loop
    vertex 1.999999999999999 -9.499999999999998 23.000000000000007
    vertex 7.000000000000004 9.499999999999991 23.000000000000007
    vertex 1.999999999999998 9.499999999999991 23.000000000000007
  endloop
endfacet
facet normal -0.0 -0.0 1.0
  outer loop
    vertex 7.000000000000004 9.499999999999991 23.000000000000007
    vertex 1.999999999999999 -9.499999999999998 23.000000000000007
    vertex 6.999999999999997 4.499999999999995 23.000000000000007
  endloop
endfacet
facet normal -0.0 -0.0 1.0
  outer loop
    vertex 6.999999999999997 4.499999999999995 23.000000000000007
    vertex 1.999999999999999 -9.499999999999998 23.000000000000007
    vertex 6.999999999999997 -9.499999999999998 23.000000000000007
  endloop
endfacet
facet normal -0.0 -0.0 1.0
  outer loop
    vertex 6.999999999999997 4.499999999999995 23.000000000000007
    vertex 6.999999999999997 -9.499999999999998 23.000000000000007
    vertex 6.999999999999997 -4.5 23.000000000000007
  endloop
endfacet
facet normal 0.0 0.0 -1.0
  outer loop
    vertex 7.0 9.499999999999995 32.99999999999999
    vertex 1.999999999999999 -9.5 32.99999999999999
    vertex 1.999999999999998 9.499999999999991 32.99999999999999
  endloop
endfacet
facet normal 0.0 0.0 -1.0
  outer loop
    vertex 1.999999999999999 -9.5 32.99999999999999
    vertex 7.0 9.499999999999995 32.99999999999999
    vertex 6.999999999999998 -9.5 32.99999999999999
  endloop
endfacet
facet normal -1.0 -6.266592183439774e-16 -0.0
  outer loop
    vertex 7.0 9.499999999999995 32.99999999999999
    vertex 6.999999999999998 -9.5 28.000000000000004
    vertex 6.999999999999998 -9.5 32.99999999999999
  endloop
endfacet
facet normal -1.0 -6.266592183439774e-16 -0.0
  outer loop
    vertex 6.999999999999998 -9.5 28.000000000000004
    vertex 7.0 9.499999999999995 32.99999999999999
    vertex 6.999999999999998 -4.500000000000001 28.000000000000004
  endloop
endfacet
facet normal -1.0 -6.266592183439774e-16 -0.0
  outer loop
    vertex 6.999999999999998 -4.500000000000001 28.000000000000004
    vertex 7.0 9.499999999999995 32.99999999999999
    vertex 6.999999999999993 4.4999999999999964 28.000000000000004
  endloop
endfacet
facet normal -1.0 -6.266592183439774e-16 -0.0
  outer loop
    vertex 6.999999999999993 4.4999999999999964 28.000000000000004
    vertex 7.0 9.499999999999995 32.99999999999999
    vertex 7.0 9.499999999999995 28.000000000000004
  endloop
endfacet
facet normal 1.1160449426013835e-17 1.0 -8.208856365284664e-18
  outer loop
    vertex 6.999999999999997 -4.500000000000001 3.0
    vertex 10.999999999999996 -4.500000000000001 28.000000000000004
    vertex 10.999999999999996 -4.500000000000001 0.0
  endloop
endfacet
facet normal 1.1160449426013835e-17 1.0 -8.208856365284664e-18
  outer loop
    vertex 10.999999999999996 -4.500000000000001 28.000000000000004
    vertex 6.999999999999997 -4.500000000000001 3.0
    vertex 6.999999999999997 -4.5 23.000000000000007
  endloop
endfacet
facet normal 1.1160449426013835e-17 1.0 -8.208856365284664e-18
  outer loop
    vertex 10.999999999999996 -4.500000000000001 28.000000000000004
    vertex 6.999999999999997 -4.5 23.000000000000007
    vertex 6.999999999999998 -4.500000000000001 28.000000000000004
  endloop
endfacet
facet normal 1.1160449426013835e-17 1.0 -8.208856365284664e-18
  outer loop
    vertex 2.5000000000000004 -4.500000000000001 3.0
    vertex 10.999999999999996 -4.500000000000001 0.0
    vertex 2.5000000000000004 -4.500000000000001 0.0
  endloop
endfacet
facet normal 1.1160449426013835e-17 1.0 -8.208856365284664e-18
  outer loop
    vertex 10.999999999999996 -4.500000000000001 0.0
    vertex 2.5000000000000004 -4.500000000000001 3.0
    vertex 6.999999999999997 -4.500000000000001 3.0
  endloop
endfacet
facet normal 2.349972068789914e-17 1.0 7.049916206369752e-17
  outer loop
    vertex 1.999999999999999 -9.5 32.99999999999999
    vertex 6.999999999999997 -9.499999999999998 23.000000000000007
    vertex 1.999999999999999 -9.499999999999998 23.000000000000007
  endloop
endfacet
facet normal 2.349972068789914e-17 1.0 7.049916206369752e-17
  outer loop
    vertex 6.999999999999997 -9.499999999999998 23.000000000000007
    vertex 1.999999999999999 -9.5 32.99999999999999
    vertex 6.999999999999998 -9.5 28.000000000000004
  endloop
endfacet
facet normal 2.349972068789914e-17 1.0 7.049916206369752e-17
  outer loop
    vertex 6.999999999999998 -9.5 28.000000000000004
    vertex 1.999999999999999 -9.5 32.99999999999999
    vertex 6.999999999999998 -9.5 32.99999999999999
  endloop
endfacet
facet normal -1.0 2.3499720687899126e-17 2.819966482547898e-16
  outer loop
    vertex 6.999999999999998 -4.500000000000001 28.000000000000004
    vertex 6.999999999999997 -9.499999999999998 23.000000000000007
    vertex 6.999999999999998 -9.5 28.000000000000004
  endloop
endfacet
facet normal -1.0 2.3499720687899126e-17 2.819966482547898e-16
  outer loop
    vertex 6.999999999999997 -9.499999999999998 23.000000000000007
    vertex 6.999999999999998 -4.500000000000001 28.000000000000004
    vertex 6.999999999999997 -4.5 23.000000000000007
  endloop
endfacet
facet normal 1.0 3.133296091719888e-16 2.819966482547897e-16
  outer loop
    vertex 6.999999999999997 -4.5 23.000000000000007
    vertex 6.999999999999993 4.4999999999999964 28.000000000000004
    vertex 6.999999999999998 -4.500000000000001 28.000000000000004
  endloop
endfacet
facet normal 1.0 3.133296091719888e-16 2.819966482547897e-16
  outer loop
    vertex 6.999999999999993 4.4999999999999964 28.000000000000004
    vertex 6.999999999999997 -4.5 23.000000000000007
    vertex 6.999999999999997 4.499999999999995 23.000000000000007
  endloop
endfacet
facet normal 4.229949723821847e-16 -1.0 3.524958103184888e-17
  outer loop
    vertex 7.0 9.499999999999995 28.000000000000004
    vertex 1.999999999999998 9.499999999999991 23.000000000000007
    vertex 7.000000000000004 9.499999999999991 23.000000000000007
  endloop
endfacet
facet normal 4.229949723821847e-16 -1.0 3.524958103184888e-17
  outer loop
    vertex 1.999999999999998 9.499999999999991 23.000000000000007
    vertex 7.0 9.499999999999995 28.000000000000004
    vertex 1.999999999999998 9.499999999999991 32.99999999999999
  endloop
endfacet
facet normal 4.229949723821847e-16 -1.0 3.524958103184888e-17
  outer loop
    vertex 1.999999999999998 9.499999999999991 32.99999999999999
    vertex 7.0 9.499999999999995 28.000000000000004
    vertex 7.0 9.499999999999995 32.99999999999999
  endloop
endfacet
facet normal -1.0 -4.2299497238218475e-16 -8.459899447643694e-16
  outer loop
    vertex 6.999999999999993 4.4999999999999964 28.000000000000004
    vertex 7.000000000000004 9.499999999999991 23.000000000000007
    vertex 6.999999999999997 4.499999999999995 23.000000000000007
  endloop
endfacet
facet normal -1.0 -4.2299497238218475e-16 -8.459899447643694e-16
  outer loop
    vertex 7.000000000000004 9.499999999999991 23.000000000000007
    vertex 6.999999999999993 4.4999999999999964 28.000000000000004
    vertex 7.0 9.499999999999995 28.000000000000004
  endloop
endfacet
endsolid denso_finger_2finger_4
